<?xml version="1.0" encoding="utf-8"?>
<!-- Generator: Adobe Illustrator 27.6.1, SVG Export Plug-In . SVG Version: 6.00 Build 0)  -->
<svg version="1.1" id="Layer_1" xmlns="http://www.w3.org/2000/svg" xmlns:xlink="http://www.w3.org/1999/xlink" x="0px" y="0px"
     viewBox="0 0 300 300" style="enable-background:new 0 0 300 300;" xml:space="preserve">
<style type="text/css">
	.st0{opacity:0.75;}
	.st1{fill:#3691FF;}
	.st2{fill:#3939FF;}
	.st3{fill:#5639FF;}
</style>
    <g class="st0">
	<path class="st1" d="M261.7,210.3L261.7,210.3c-8.6,8.6-22.4,8.6-31,0c0,0,0,0,0,0L119.2,98.9l7.9-7.9c12.8-12.7,33.4-12.7,46.2,0
		l88.4,88.4C270.3,187.9,270.3,201.8,261.7,210.3z"/>
        <path class="st2" d="M163.6,209.1L163.6,209.1c-8.6,8.6-22.4,8.6-31,0l-61.8-61.8l31-31l61.8,61.8
		C172.2,186.6,172.2,200.5,163.6,209.1C163.6,209.1,163.6,209.1,163.6,209.1z"/>
        <path class="st3" d="M86.2,196.7l-0.3,0.3l-15.2,15.2c-8.6,8.6-22.4,8.6-31,0l-1.4-1.4c-8.6-8.6-8.6-22.4,0-31c0,0,0,0,0,0
		l15.2-15.2l0.3-0.3L86.2,196.7z"/>
</g>
    <g>
	<path class="st2" d="M150.3,279.8c-60.3-0.2-112.5-41.3-127-99.9c-8.7-35.2-2.7-71.4,16.8-102L21.6,66.6c-4.1-2.5-7.1-6.5-8.2-11.2
		c-2.4-9.7,3.6-19.5,13.2-21.9l61.2-15.1c0.9-0.2,1.7-0.3,2.6-0.3c5.1,0,9.5,3.4,10.7,8.4l15.1,61.2c2.4,9.7-3.6,19.5-13.2,21.9
		c-1.4,0.3-2.9,0.5-4.3,0.5c-3.3,0-6.6-0.9-9.4-2.6L59,89.3c-16.2,25.2-21.4,56.2-14.2,85.3c11.9,48.1,54.7,82.3,104.1,83.1
		c5.5,0.1,10.2,3.7,11.5,8.8c0.8,3.3,0.1,6.7-1.9,9.4C156.5,278.3,153.5,279.8,150.3,279.8L150.3,279.8z"/>
        <path class="st2" d="M90.4,19.1c4.5,0,8.6,3.1,9.7,7.6L115.3,88c2.3,9.2-3.3,18.4-12.5,20.7c-1.3,0.3-2.7,0.5-4.1,0.5
		c-3.1,0-6.2-0.8-8.9-2.5L58.7,87.9c-16.2,24.7-22.5,55.9-14.9,86.9c12.2,49.6,56.3,83,105.1,83.8c4.9,0.1,9.3,3.3,10.5,8.1
		c1.5,6.1-2.8,12-9,12c0,0,0,0,0,0C92,278.6,39,238.9,24.4,179.6c-9-36.4-1.7-72.9,17.2-102.1L22.1,65.7c-3.9-2.3-6.7-6.2-7.8-10.5
		c-2.3-9.2,3.3-18.4,12.5-20.7L88,19.4C88.8,19.2,89.6,19.1,90.4,19.1 M90.4,17.1C90.4,17.1,90.4,17.1,90.4,17.1
		c-1,0-1.9,0.1-2.9,0.3L26.4,32.6c-10.2,2.5-16.5,12.9-14,23.1c1.2,4.9,4.4,9.2,8.7,11.8l17.7,10.7c-9.1,14.6-15.2,30.5-18.2,47.4
		c-3.2,18.2-2.6,36.5,1.9,54.6c7.2,29.2,23.6,54.4,47.3,72.8c23,17.9,51.7,27.7,80.6,27.8c3.5,0,6.7-1.6,8.8-4.3
		c2.2-2.9,3-6.6,2.1-10.2c-1.4-5.5-6.5-9.5-12.4-9.6c-49-0.8-91.4-34.7-103.1-82.3c-7-28.5-2.1-58.9,13.6-83.7l29.4,17.8
		c3,1.8,6.4,2.8,9.9,2.8c1.5,0,3.1-0.2,4.5-0.6c5-1.2,9.1-4.3,11.8-8.7c2.6-4.4,3.4-9.5,2.2-14.5l-15.1-61.2
		C100.8,20.9,96,17.1,90.4,17.1L90.4,17.1L90.4,17.1z"/>
</g>
    <g>
	<path class="st2" d="M211.3,278.7c-5.1,0-9.5-3.4-10.7-8.4l-15.1-61.2c-1.2-4.7-0.4-9.6,2.1-13.7c2.5-4.1,6.5-7,11.2-8.2
		c1.4-0.3,2.9-0.5,4.3-0.5c3.3,0,6.6,0.9,9.4,2.6l30.3,18.3c16.2-25.2,21.4-56.3,14.2-85.3C245.1,74.2,202.3,40,152.8,39.2
		c-5.5-0.1-10.2-3.7-11.5-8.8c-0.8-3.3-0.1-6.7,2-9.4c1.9-2.5,4.9-3.9,8-3.9c60.3,0.2,112.5,41.3,127,99.9
		c8.7,35.2,2.7,71.4-16.8,102l18.6,11.2c4.1,2.5,7.1,6.5,8.2,11.2c2.4,9.7-3.6,19.5-13.2,21.9l-61.2,15.1
		C213.1,278.6,212.2,278.7,211.3,278.7z"/>
        <path class="st2" d="M151.4,18.1C151.4,18.1,151.4,18.1,151.4,18.1c58.4,0.2,111.4,39.9,126,99.1c9,36.4,1.7,72.9-17.2,102.1
		l19.5,11.8c3.9,2.3,6.7,6.2,7.8,10.5c2.3,9.2-3.3,18.4-12.5,20.7l-61.2,15.1c-0.8,0.2-1.6,0.3-2.4,0.3c-4.5,0-8.6-3.1-9.7-7.6
		l-15.1-61.2c-2.3-9.2,3.3-18.4,12.5-20.7c1.3-0.3,2.7-0.5,4.1-0.5c3.1,0,6.2,0.8,8.9,2.5l31.1,18.8l0,0.1
		c16.2-24.8,22.5-55.9,14.9-87c-12.2-49.6-56.3-83-105.1-83.8c-4.9-0.1-9.3-3.3-10.5-8.1C140.9,24.1,145.1,18.1,151.4,18.1
		 M151.4,16.1L151.4,16.1L151.4,16.1L151.4,16.1c-3.5,0-6.7,1.6-8.8,4.3c-2.2,2.9-3,6.6-2.1,10.2c1.4,5.5,6.5,9.5,12.4,9.6
		c49,0.8,91.4,34.7,103.1,82.3c7,28.5,2.1,58.9-13.6,83.7L213,188.4c-3-1.8-6.4-2.8-9.9-2.8c-1.5,0-3.1,0.2-4.5,0.6
		c-10.2,2.5-16.5,12.9-14,23.1l15.1,61.2c1.3,5.4,6.1,9.1,11.7,9.1c1,0,1.9-0.1,2.9-0.3l61.2-15.1c10.2-2.5,16.5-12.9,14-23.1
		c-1.2-4.9-4.4-9.2-8.7-11.8l-17.7-10.7c9.1-14.6,15.2-30.5,18.2-47.4c3.2-18.2,2.6-36.5-1.9-54.6C272.1,87.6,255.7,62.4,232,44
		C209,26.1,180.4,16.2,151.4,16.1L151.4,16.1z"/>
</g>
</svg>
